<svg width="1280" height="720" viewBox="0 0 1280 720" xmlns="http://www.w3.org/2000/svg"><rect x="0" y="0" width="1280" height="720" fill="#FFFFFF"/>
<text x="80" y="92" font-family="Arial,sans-serif" font-size="44" font-weight="500" fill="#2C2C2A">Co-located sensing node</text>
<text x="80" y="134" font-family="Arial,sans-serif" font-size="24" fill="#5F5E5A">one rigid board &#8594; shared clock + shared extrinsics</text>
<rect x="80" y="176" width="1120" height="468" rx="28" fill="#FAFAF8" stroke="#B4B2A9" stroke-width="2"/>
<text x="108" y="214" font-family="Arial,sans-serif" font-size="22" fill="#5F5E5A">single board</text>
<g font-family="Arial,sans-serif">
<rect x="120" y="232" width="250" height="86" rx="12" fill="#FAEEDA" stroke="#EF9F27" stroke-width="2"/><text x="245" y="285" font-size="26" font-weight="500" fill="#854F0B" text-anchor="middle">Camera</text>
<rect x="120" y="330" width="250" height="86" rx="12" fill="#FAEEDA" stroke="#EF9F27" stroke-width="2"/><text x="245" y="383" font-size="26" font-weight="500" fill="#854F0B" text-anchor="middle">IMU</text>
<rect x="120" y="428" width="250" height="86" rx="12" fill="#FAEEDA" stroke="#EF9F27" stroke-width="2"/><text x="245" y="473" font-size="26" font-weight="500" fill="#854F0B" text-anchor="middle">RF front-end</text><text x="245" y="500" font-size="18" fill="#854F0B" text-anchor="middle">mmWave / UWB</text>
<rect x="120" y="526" width="250" height="86" rx="12" fill="#FAEEDA" stroke="#EF9F27" stroke-width="2"/><text x="245" y="579" font-size="26" font-weight="500" fill="#854F0B" text-anchor="middle">ToF / thermal</text>
<rect x="500" y="330" width="290" height="184" rx="14" fill="#E6F1FB" stroke="#378ADD" stroke-width="2"/><text x="645" y="408" font-size="30" font-weight="500" fill="#185FA5" text-anchor="middle">FPGA L0</text><text x="645" y="446" font-size="20" fill="#185FA5" text-anchor="middle">despread &#183; MTI</text><text x="645" y="474" font-size="20" fill="#185FA5" text-anchor="middle">beamform</text>
<rect x="850" y="330" width="290" height="184" rx="14" fill="#E1F5EE" stroke="#1D9E75" stroke-width="2"/><text x="995" y="408" font-size="30" font-weight="500" fill="#0F6E56" text-anchor="middle">SoC / NPU</text><text x="995" y="446" font-size="20" fill="#0F6E56" text-anchor="middle">estimates +</text><text x="995" y="474" font-size="20" fill="#0F6E56" text-anchor="middle">events</text>
<line x1="370" y1="275" x2="498" y2="400" stroke="#888780" stroke-width="2"/><line x1="370" y1="373" x2="498" y2="410" stroke="#888780" stroke-width="2"/><line x1="370" y1="471" x2="498" y2="430" stroke="#888780" stroke-width="2"/><line x1="370" y1="569" x2="498" y2="445" stroke="#888780" stroke-width="2"/>
<line x1="790" y1="422" x2="846" y2="422" stroke="#888780" stroke-width="2.5"/><polygon points="846,422 834,416 834,428" fill="#888780"/>
<line x1="1140" y1="422" x2="1230" y2="422" stroke="#0F6E56" stroke-width="2.5"/><polygon points="1232,422 1218,415 1218,429" fill="#0F6E56"/><text x="1175" y="404" font-size="20" fill="#0F6E56" text-anchor="middle">to hub</text>
<text x="640" y="606" font-size="20" fill="#5F5E5A" text-anchor="middle">shared clock &#183; shared extrinsics &#183; heartbeat &#8212; raw signal never leaves the board</text>
</g></svg>